<svg width="137" height="42" viewBox="0 0 137 42" fill="none" xmlns="http://www.w3.org/2000/svg">
<path d="M5.568 14.64C6.26133 14.64 6.87467 14.7413 7.408 14.944C7.952 15.1467 8.464 15.4507 8.944 15.856L7.696 17.344C7.36533 17.088 7.04 16.896 6.72 16.768C6.4 16.64 6.05867 16.576 5.696 16.576C4.94933 16.576 4.35733 16.8907 3.92 17.52C3.49333 18.1493 3.28 19.12 3.28 20.432C3.28 21.7227 3.49333 22.6827 3.92 23.312C4.35733 23.9307 4.96 24.24 5.728 24.24C6.13333 24.24 6.50133 24.1653 6.832 24.016C7.16267 23.856 7.52 23.632 7.904 23.344L9.072 24.848C8.656 25.264 8.14933 25.6053 7.552 25.872C6.96533 26.1387 6.31467 26.272 5.6 26.272C4.576 26.272 3.68533 26.048 2.928 25.6C2.17067 25.152 1.57867 24.4907 1.152 23.616C0.736 22.7307 0.528 21.6693 0.528 20.432C0.528 19.2267 0.741333 18.1867 1.168 17.312C1.60533 16.4373 2.20267 15.776 2.96 15.328C3.728 14.8693 4.59733 14.64 5.568 14.64ZM14.4106 14.64C15.9893 14.64 17.216 15.1467 18.0906 16.16C18.976 17.1733 19.4186 18.6027 19.4186 20.448C19.4186 21.6533 19.216 22.6933 18.8106 23.568C18.416 24.4427 17.84 25.1147 17.0826 25.584C16.336 26.0427 15.4453 26.272 14.4106 26.272C13.376 26.272 12.4853 26.0427 11.7386 25.584C10.992 25.1253 10.416 24.464 10.0106 23.6C9.61596 22.7253 9.41862 21.6747 9.41862 20.448C9.41862 19.2533 9.61596 18.2187 10.0106 17.344C10.416 16.4693 10.992 15.8027 11.7386 15.344C12.4853 14.8747 13.376 14.64 14.4106 14.64ZM14.4106 16.56C13.6533 16.56 13.088 16.8693 12.7146 17.488C12.352 18.096 12.1706 19.0827 12.1706 20.448C12.1706 21.8133 12.3573 22.8053 12.7306 23.424C13.104 24.0427 13.664 24.352 14.4106 24.352C15.1786 24.352 15.744 24.048 16.1066 23.44C16.48 22.8213 16.6666 21.824 16.6666 20.448C16.6666 19.072 16.48 18.08 16.1066 17.472C15.7333 16.864 15.168 16.56 14.4106 16.56ZM25.4731 14.64C27.0518 14.64 28.2785 15.1467 29.1531 16.16C30.0385 17.1733 30.4811 18.6027 30.4811 20.448C30.4811 21.6533 30.2785 22.6933 29.8731 23.568C29.4785 24.4427 28.9025 25.1147 28.1451 25.584C27.3985 26.0427 26.5078 26.272 25.4731 26.272C24.4385 26.272 23.5478 26.0427 22.8011 25.584C22.0545 25.1253 21.4785 24.464 21.0731 23.6C20.6785 22.7253 20.4811 21.6747 20.4811 20.448C20.4811 19.2533 20.6785 18.2187 21.0731 17.344C21.4785 16.4693 22.0545 15.8027 22.8011 15.344C23.5478 14.8747 24.4385 14.64 25.4731 14.64ZM25.4731 16.56C24.7158 16.56 24.1505 16.8693 23.7771 17.488C23.4145 18.096 23.2331 19.0827 23.2331 20.448C23.2331 21.8133 23.4198 22.8053 23.7931 23.424C24.1665 24.0427 24.7265 24.352 25.4731 24.352C26.2411 24.352 26.8065 24.048 27.1691 23.44C27.5425 22.8213 27.7291 21.824 27.7291 20.448C27.7291 19.072 27.5425 18.08 27.1691 17.472C26.7958 16.864 26.2305 16.56 25.4731 16.56ZM34.6796 14.912V23.92H38.9996L38.7276 26H32.0556V14.912H34.6796ZM49.9596 20.128C50.6956 20.2667 51.293 20.5387 51.7516 20.944C52.221 21.3493 52.4556 21.9573 52.4556 22.768C52.4556 23.952 52.029 24.7893 51.1756 25.28C50.333 25.76 49.149 26 47.6236 26H44.0556V14.912H47.1916C48.749 14.912 49.9383 15.136 50.7596 15.584C51.581 16.0213 51.9916 16.7413 51.9916 17.744C51.9916 18.3947 51.7943 18.9227 51.3996 19.328C51.0156 19.7227 50.5356 19.9893 49.9596 20.128ZM46.6796 16.768V19.344H47.6556C48.765 19.344 49.3196 18.896 49.3196 18C49.3196 17.552 49.1703 17.2373 48.8716 17.056C48.573 16.864 48.0983 16.768 47.4476 16.768H46.6796ZM47.6396 24.096C48.333 24.096 48.8556 23.9947 49.2076 23.792C49.5703 23.5787 49.7516 23.1893 49.7516 22.624C49.7516 21.6 49.1116 21.088 47.8316 21.088H46.6796V24.096H47.6396ZM59.6925 26L59.1165 23.616H55.8845L55.3245 26H52.6045L55.9485 14.912H59.1325L62.4765 26H59.6925ZM56.3325 21.712H58.6685L57.5005 16.816L56.3325 21.712ZM66.938 21.76H65.914V26H63.29V14.912H66.922C68.4367 14.912 69.5727 15.1893 70.33 15.744C71.098 16.2987 71.482 17.1467 71.482 18.288C71.482 19.0027 71.3113 19.6 70.97 20.08C70.6287 20.5493 70.09 20.9493 69.354 21.28L72.17 26H69.21L66.938 21.76ZM65.914 19.952H67.018C67.6047 19.952 68.042 19.8187 68.33 19.552C68.6287 19.2853 68.778 18.864 68.778 18.288C68.778 17.7547 68.618 17.3653 68.298 17.12C67.9887 16.8747 67.5087 16.752 66.858 16.752H65.914V19.952ZM79.069 20.128C79.805 20.2667 80.4023 20.5387 80.861 20.944C81.3303 21.3493 81.565 21.9573 81.565 22.768C81.565 23.952 81.1383 24.7893 80.285 25.28C79.4423 25.76 78.2583 26 76.733 26H73.165V14.912H76.301C77.8583 14.912 79.0477 15.136 79.869 15.584C80.6903 16.0213 81.101 16.7413 81.101 17.744C81.101 18.3947 80.9037 18.9227 80.509 19.328C80.125 19.7227 79.645 19.9893 79.069 20.128ZM75.789 16.768V19.344H76.765C77.8743 19.344 78.429 18.896 78.429 18C78.429 17.552 78.2797 17.2373 77.981 17.056C77.6823 16.864 77.2077 16.768 76.557 16.768H75.789ZM76.749 24.096C77.4423 24.096 77.965 23.9947 78.317 23.792C78.6797 23.5787 78.861 23.1893 78.861 22.624C78.861 21.6 78.221 21.088 76.941 21.088H75.789V24.096H76.749ZM89.84 14.912L89.568 16.784H85.664V19.44H89.072V21.28H85.664V24.112H89.84V26H83.04V14.912H89.84ZM95.1099 21.76H94.0859V26H91.4619V14.912H95.0939C96.6085 14.912 97.7445 15.1893 98.5019 15.744C99.2699 16.2987 99.6539 17.1467 99.6539 18.288C99.6539 19.0027 99.4832 19.6 99.1419 20.08C98.8005 20.5493 98.2619 20.9493 97.5259 21.28L100.342 26H97.3819L95.1099 21.76ZM94.0859 19.952H95.1899C95.7765 19.952 96.2139 19.8187 96.5019 19.552C96.8005 19.2853 96.9499 18.864 96.9499 18.288C96.9499 17.7547 96.7899 17.3653 96.4699 17.12C96.1605 16.8747 95.6805 16.752 95.0299 16.752H94.0859V19.952Z" fill="#EFE7E2"/>
</svg>
