<svg width="202" height="53" viewBox="0 0 202 53" fill="none" xmlns="http://www.w3.org/2000/svg">
<g filter="url(#filter0_d_812_1943)">
<path d="M41 7.31364C32.1634 7.31364 25 14.4771 25 23.3136C33.8366 23.3136 41 16.1502 41 7.31364Z" fill="#FF6E40"/>
<path d="M41 37.3156C32.1634 37.3156 25 30.1522 25 21.3156C33.8366 21.3156 41 28.479 41 37.3156Z" fill="#FF6E40"/>
<path d="M25 23.3156C16.1634 23.3156 9 16.1522 9 7.3156C17.8366 7.3156 25 14.479 25 23.3156Z" fill="#FF6E40"/>
<path d="M25 21.3136C16.1634 21.3136 9 28.4771 9 37.3136C17.8366 37.3136 25 30.1502 25 21.3136Z" fill="#FF6E40"/>
<path d="M46.6263 22.6289C40.3778 16.3806 30.2471 16.3806 23.9987 22.6289C30.2471 28.8773 40.3778 28.8773 46.6263 22.6289Z" fill="#FF6E40"/>
<path d="M46.6263 22.6289C40.3778 16.3806 30.2471 16.3806 23.9987 22.6289C30.2471 28.8773 40.3778 28.8773 46.6263 22.6289Z" fill="#FF6E40"/>
<path d="M26.6275 22.6292C20.3791 16.3809 10.2484 16.3809 4 22.6292C10.2484 28.8776 20.3791 28.8776 26.6275 22.6292Z" fill="#FF6E40"/>
<path d="M25.3138 22.6273C19.0653 16.3789 19.0653 6.24835 25.3138 0C31.5622 6.24835 31.5622 16.3789 25.3138 22.6273Z" fill="#FF6E40"/>
<path d="M25.3138 22.002C19.0653 28.2503 19.0653 38.3809 25.3138 44.6292C31.5622 38.3809 31.5622 28.2503 25.3138 22.002Z" fill="#FF6E40"/>
</g>
<path d="M70.3815 16.14C71.0748 16.14 71.6881 16.2413 72.2215 16.444C72.7655 16.6467 73.2775 16.9507 73.7575 17.356L72.5095 18.844C72.1788 18.588 71.8535 18.396 71.5335 18.268C71.2135 18.14 70.8721 18.076 70.5095 18.076C69.7628 18.076 69.1708 18.3907 68.7335 19.02C68.3068 19.6493 68.0935 20.62 68.0935 21.932C68.0935 23.2227 68.3068 24.1827 68.7335 24.812C69.1708 25.4307 69.7735 25.74 70.5415 25.74C70.9468 25.74 71.3148 25.6653 71.6455 25.516C71.9761 25.356 72.3335 25.132 72.7175 24.844L73.8855 26.348C73.4695 26.764 72.9628 27.1053 72.3655 27.372C71.7788 27.6387 71.1281 27.772 70.4135 27.772C69.3895 27.772 68.4988 27.548 67.7415 27.1C66.9841 26.652 66.3921 25.9907 65.9655 25.116C65.5495 24.2307 65.3415 23.1693 65.3415 21.932C65.3415 20.7267 65.5548 19.6867 65.9815 18.812C66.4188 17.9373 67.0161 17.276 67.7735 16.828C68.5415 16.3693 69.4108 16.14 70.3815 16.14ZM79.2241 16.14C80.8028 16.14 82.0294 16.6467 82.9041 17.66C83.7894 18.6733 84.2321 20.1027 84.2321 21.948C84.2321 23.1533 84.0294 24.1933 83.6241 25.068C83.2294 25.9427 82.6534 26.6147 81.8961 27.084C81.1494 27.5427 80.2588 27.772 79.2241 27.772C78.1894 27.772 77.2988 27.5427 76.5521 27.084C75.8054 26.6253 75.2294 25.964 74.8241 25.1C74.4294 24.2253 74.2321 23.1747 74.2321 21.948C74.2321 20.7533 74.4294 19.7187 74.8241 18.844C75.2294 17.9693 75.8054 17.3027 76.5521 16.844C77.2988 16.3747 78.1894 16.14 79.2241 16.14ZM79.2241 18.06C78.4668 18.06 77.9014 18.3693 77.5281 18.988C77.1654 19.596 76.9841 20.5827 76.9841 21.948C76.9841 23.3133 77.1708 24.3053 77.5441 24.924C77.9174 25.5427 78.4774 25.852 79.2241 25.852C79.9921 25.852 80.5574 25.548 80.9201 24.94C81.2934 24.3213 81.4801 23.324 81.4801 21.948C81.4801 20.572 81.2934 19.58 80.9201 18.972C80.5468 18.364 79.9814 18.06 79.2241 18.06ZM90.2866 16.14C91.8653 16.14 93.0919 16.6467 93.9666 17.66C94.8519 18.6733 95.2946 20.1027 95.2946 21.948C95.2946 23.1533 95.0919 24.1933 94.6866 25.068C94.2919 25.9427 93.7159 26.6147 92.9586 27.084C92.2119 27.5427 91.3213 27.772 90.2866 27.772C89.2519 27.772 88.3613 27.5427 87.6146 27.084C86.8679 26.6253 86.2919 25.964 85.8866 25.1C85.4919 24.2253 85.2946 23.1747 85.2946 21.948C85.2946 20.7533 85.4919 19.7187 85.8866 18.844C86.2919 17.9693 86.8679 17.3027 87.6146 16.844C88.3613 16.3747 89.2519 16.14 90.2866 16.14ZM90.2866 18.06C89.5293 18.06 88.9639 18.3693 88.5906 18.988C88.2279 19.596 88.0466 20.5827 88.0466 21.948C88.0466 23.3133 88.2333 24.3053 88.6066 24.924C88.9799 25.5427 89.5399 25.852 90.2866 25.852C91.0546 25.852 91.6199 25.548 91.9826 24.94C92.3559 24.3213 92.5426 23.324 92.5426 21.948C92.5426 20.572 92.3559 19.58 91.9826 18.972C91.6093 18.364 91.0439 18.06 90.2866 18.06ZM99.4931 16.412V25.42H103.813L103.541 27.5H96.8691V16.412H99.4931ZM114.773 21.628C115.509 21.7667 116.106 22.0387 116.565 22.444C117.034 22.8493 117.269 23.4573 117.269 24.268C117.269 25.452 116.842 26.2893 115.989 26.78C115.146 27.26 113.962 27.5 112.437 27.5H108.869V16.412H112.005C113.562 16.412 114.752 16.636 115.573 17.084C116.394 17.5213 116.805 18.2413 116.805 19.244C116.805 19.8947 116.608 20.4227 116.213 20.828C115.829 21.2227 115.349 21.4893 114.773 21.628ZM111.493 18.268V20.844H112.469C113.578 20.844 114.133 20.396 114.133 19.5C114.133 19.052 113.984 18.7373 113.685 18.556C113.386 18.364 112.912 18.268 112.261 18.268H111.493ZM112.453 25.596C113.146 25.596 113.669 25.4947 114.021 25.292C114.384 25.0787 114.565 24.6893 114.565 24.124C114.565 23.1 113.925 22.588 112.645 22.588H111.493V25.596H112.453ZM124.506 27.5L123.93 25.116H120.698L120.138 27.5H117.418L120.762 16.412H123.946L127.29 27.5H124.506ZM121.146 23.212H123.482L122.314 18.316L121.146 23.212ZM131.751 23.26H130.727V27.5H128.103V16.412H131.735C133.25 16.412 134.386 16.6893 135.143 17.244C135.911 17.7987 136.295 18.6467 136.295 19.788C136.295 20.5027 136.125 21.1 135.783 21.58C135.442 22.0493 134.903 22.4493 134.167 22.78L136.983 27.5H134.023L131.751 23.26ZM130.727 21.452H131.831C132.418 21.452 132.855 21.3187 133.143 21.052C133.442 20.7853 133.591 20.364 133.591 19.788C133.591 19.2547 133.431 18.8653 133.111 18.62C132.802 18.3747 132.322 18.252 131.671 18.252H130.727V21.452ZM143.882 21.628C144.618 21.7667 145.216 22.0387 145.674 22.444C146.144 22.8493 146.378 23.4573 146.378 24.268C146.378 25.452 145.952 26.2893 145.098 26.78C144.256 27.26 143.072 27.5 141.546 27.5H137.978V16.412H141.114C142.672 16.412 143.861 16.636 144.682 17.084C145.504 17.5213 145.914 18.2413 145.914 19.244C145.914 19.8947 145.717 20.4227 145.322 20.828C144.938 21.2227 144.458 21.4893 143.882 21.628ZM140.602 18.268V20.844H141.578C142.688 20.844 143.242 20.396 143.242 19.5C143.242 19.052 143.093 18.7373 142.794 18.556C142.496 18.364 142.021 18.268 141.37 18.268H140.602ZM141.562 25.596C142.256 25.596 142.778 25.4947 143.13 25.292C143.493 25.0787 143.674 24.6893 143.674 24.124C143.674 23.1 143.034 22.588 141.754 22.588H140.602V25.596H141.562ZM154.653 16.412L154.381 18.284H150.477V20.94H153.885V22.78H150.477V25.612H154.653V27.5H147.853V16.412H154.653ZM159.923 23.26H158.899V27.5H156.275V16.412H159.907C161.422 16.412 162.558 16.6893 163.315 17.244C164.083 17.7987 164.467 18.6467 164.467 19.788C164.467 20.5027 164.297 21.1 163.955 21.58C163.614 22.0493 163.075 22.4493 162.339 22.78L165.155 27.5H162.195L159.923 23.26ZM158.899 21.452H160.003C160.59 21.452 161.027 21.3187 161.315 21.052C161.614 20.7853 161.763 20.364 161.763 19.788C161.763 19.2547 161.603 18.8653 161.283 18.62C160.974 18.3747 160.494 18.252 159.843 18.252H158.899V21.452Z" fill="#EFE7E2"/>
<defs>
<filter id="filter0_d_812_1943" x="0" y="0" width="50.626" height="52.6292" filterUnits="userSpaceOnUse" color-interpolation-filters="sRGB">
<feFlood flood-opacity="0" result="BackgroundImageFix"/>
<feColorMatrix in="SourceAlpha" type="matrix" values="0 0 0 0 0 0 0 0 0 0 0 0 0 0 0 0 0 0 127 0" result="hardAlpha"/>
<feOffset dy="4"/>
<feGaussianBlur stdDeviation="2"/>
<feComposite in2="hardAlpha" operator="out"/>
<feColorMatrix type="matrix" values="0 0 0 0 0 0 0 0 0 0 0 0 0 0 0 0 0 0 0.25 0"/>
<feBlend mode="normal" in2="BackgroundImageFix" result="effect1_dropShadow_812_1943"/>
<feBlend mode="normal" in="SourceGraphic" in2="effect1_dropShadow_812_1943" result="shape"/>
</filter>
</defs>
</svg>
