<svg width="51" height="53" viewBox="0 0 51 53" fill="none" xmlns="http://www.w3.org/2000/svg">
<g filter="url(#filter0_d_1552_296)">
<path d="M41 7.31364C32.1634 7.31364 25 14.4771 25 23.3136C33.8366 23.3136 41 16.1502 41 7.31364Z" fill="#FF6E40"/>
<path d="M41 37.3156C32.1634 37.3156 25 30.1522 25 21.3156C33.8366 21.3156 41 28.479 41 37.3156Z" fill="#FF6E40"/>
<path d="M25 23.3156C16.1634 23.3156 9 16.1522 9 7.3156C17.8366 7.3156 25 14.479 25 23.3156Z" fill="#FF6E40"/>
<path d="M25 21.3136C16.1634 21.3136 9 28.4771 9 37.3136C17.8366 37.3136 25 30.1502 25 21.3136Z" fill="#FF6E40"/>
<path d="M46.6263 22.6289C40.3778 16.3806 30.2471 16.3806 23.9987 22.6289C30.2471 28.8773 40.3778 28.8773 46.6263 22.6289Z" fill="#FF6E40"/>
<path d="M46.6263 22.6289C40.3778 16.3806 30.2471 16.3806 23.9987 22.6289C30.2471 28.8773 40.3778 28.8773 46.6263 22.6289Z" fill="#FF6E40"/>
<path d="M26.6275 22.6292C20.3791 16.3809 10.2484 16.3809 4 22.6292C10.2484 28.8776 20.3791 28.8776 26.6275 22.6292Z" fill="#FF6E40"/>
<path d="M25.3138 22.6273C19.0653 16.3789 19.0653 6.24835 25.3138 0C31.5622 6.24835 31.5622 16.3789 25.3138 22.6273Z" fill="#FF6E40"/>
<path d="M25.3138 22.002C19.0653 28.2503 19.0653 38.3809 25.3138 44.6292C31.5622 38.3809 31.5622 28.2503 25.3138 22.002Z" fill="#FF6E40"/>
</g>
<defs>
<filter id="filter0_d_1552_296" x="0" y="0" width="50.626" height="52.6292" filterUnits="userSpaceOnUse" color-interpolation-filters="sRGB">
<feFlood flood-opacity="0" result="BackgroundImageFix"/>
<feColorMatrix in="SourceAlpha" type="matrix" values="0 0 0 0 0 0 0 0 0 0 0 0 0 0 0 0 0 0 127 0" result="hardAlpha"/>
<feOffset dy="4"/>
<feGaussianBlur stdDeviation="2"/>
<feComposite in2="hardAlpha" operator="out"/>
<feColorMatrix type="matrix" values="0 0 0 0 0 0 0 0 0 0 0 0 0 0 0 0 0 0 0.25 0"/>
<feBlend mode="normal" in2="BackgroundImageFix" result="effect1_dropShadow_1552_296"/>
<feBlend mode="normal" in="SourceGraphic" in2="effect1_dropShadow_1552_296" result="shape"/>
</filter>
</defs>
</svg>
